# xmcd
#
# Track frame offsets: 
#        150
#        4382
#        19057
#        33785
#        51427
#        63625
#        81742
#        91637
#        130227
#        147887
#        161340
#        174742
#
# Disc length: 2431 seconds
#
# Revision: 1
# Processed by: cddbd v1.5.2PL0 Copyright (c) Steve Scherf et al.
# Submitted via: ExactAudioCopy v0.99pb4
#
DISCID=9e097d0c
DTITLE=Lightnin´ Hopkins - Live at Newport
DYEAR=2002
DGENRE=Blues
TTITLE0=Introduction by Michael Bloomfield
TTITLE1=Where can I Find My Baby
TTITLE2=Baby Please Don´t Go
TTITLE3=Mojo Hand
TTITLE4=Trouble in Mind
TTITLE5=The Woman I Loving, She´s Taken My Appetite
TTITLE6=Come on Baby
TTITLE7=Cotton Patch Blues
TTITLE8=Instrumental
TTITLE9=Jealous of My Wife
TTITLE10=Every Day About This Time
TTITLE11=Shake That Thing
EXTD=
EXTT0=
EXTT1=
EXTT2=
EXTT3=
EXTT4=
EXTT5=
EXTT6=
EXTT7=
EXTT8=
EXTT9=
EXTT10=
EXTT11=
PLAYORDER=
